-
      the fast  and The Hottest Private Tracker on the net

Please Seed back to make the speed Faster!!
 ............ NFO .............
-Brought to you by simplykaka on
Janeane Garofalo : If You Will  - Live in Seattle (2010)

General
Complete name                            : Janeane Garofalo : If You Will  - Live in Seattle (2010) Divx AAC - kaka.avi
Format                                   : AVI
Format/Info                              : Audio Video Interleave
File size                                : 309 MiB
Duration                                 : 1h 5mn
Overall bit rate                         : 661 Kbps

Video
ID                                       : 0
Format                                   : MPEG-4 Visual
Format profile                           : Simple@L0
Format settings, BVOP                    : 2
Format settings, QPel                    : No
Format settings, GMC                     : No warppoints
Format settings, Matrix                  : Default (H.263)
Muxing mode                              : Packed bitstream
Codec ID                                 : DIVX
Codec ID/Info                            : Project Mayo
Codec ID/Hint                            : DivX 4
Duration                                 : 1h 5mn
Bit rate                                 : 481 Kbps
Width                                    : 640 pixels
Height                                   : 480 pixels
Display aspect ratio                     : 4:3
Frame rate                               : 29.970 fps
Color space                              : YUV
Chroma subsampling                       : 4:2:0
Bit depth                                : 8 bits
Scan type                                : Progressive
Compression mode                         : Lossy
Bits/(Pixel*Frame)                       : 0.052
Stream size                              : 225 MiB (73%)
Writing library                          : XviD 64

Audio
ID                                       : 1
Format                                   : AAC
Format/Info                              : Advanced Audio Codec
Format profile                           : LC
Codec ID                                 : FF
Duration                                 : 1h 5mn
Bit rate                                 : 165 Kbps
Channel(s)                               : 2 channels
Channel positions                        : Front: L R
Sampling rate                            : 48.0 KHz
Compression mode                         : Lossy
Stream size                              : 77.3 MiB (25%)
Alignment                                : Split accross interleaves
Interleave, duration                     : 21 ms (0.64 video frame)
Interleave, preload duration             : 388 ms


Please Seed!